<svg width="151.000000" height="51.000000" viewBox="0 0 151 51" fill="none" xmlns="http://www.w3.org/2000/svg" xmlns:xlink="http://www.w3.org/1999/xlink">
	<desc>
			Created with Pixso.
	</desc>
	<defs/>
	<path id="Подробнее" d="M82.65 23.23Q82.3 24.53 82.3 26.35Q82.3 27.62 82.56 28.6Q82.82 29.59 83.32 30.27Q83.68 30.77 84.17 31.09Q84.34 31.21 84.53 31.3Q85.25 31.65 86.15 31.65Q87.32 31.65 88.19 31.17Q88.44 31.03 88.66 30.85Q89.2 30.41 89.54 29.74Q90.02 28.78 90.02 27.39Q90.02 26.22 89.64 25.35Q89.38 24.75 88.94 24.34Q88.75 24.15 88.53 24.01Q87.78 23.53 86.67 23.53Q85.97 23.53 85.41 23.75Q84.85 23.97 84.44 24.31Q84.03 24.64 83.8 24.99L83.71 24.99Q83.76 23.8 84.04 23.02Q84.32 22.24 84.8 21.79Q84.93 21.66 85.09 21.56Q85.47 21.29 85.94 21.17Q86.31 21.06 86.78 20.95Q87.26 20.85 87.8 20.75Q88.34 20.65 88.88 20.56Q89.42 20.47 89.91 20.4L89.68 19.26Q88.71 19.41 87.67 19.61Q86.64 19.81 85.64 20.08Q84.68 20.32 84.01 20.89Q83.87 21.02 83.74 21.16Q83 21.94 82.65 23.23ZM33.06 20.07L33.06 31.5L34.39 31.5L34.39 21.25L40.25 21.25L40.25 31.5L41.57 31.5L41.57 20.07L33.06 20.07ZM51.62 29.08Q51.89 28.25 51.89 27.2Q51.89 25.8 51.41 24.81Q51.05 24.09 50.49 23.62Q50.28 23.44 50.04 23.3Q50 23.28 49.96 23.25Q49.11 22.78 47.99 22.78Q46.76 22.78 45.87 23.3Q45.6 23.46 45.36 23.66Q44.84 24.12 44.51 24.8Q44.03 25.79 44.03 27.2Q44.03 28.25 44.32 29.08Q44.6 29.91 45.12 30.48Q45.37 30.75 45.66 30.96Q45.98 31.19 46.36 31.35Q47.07 31.65 47.93 31.65Q48.85 31.65 49.58 31.35Q50.05 31.16 50.43 30.86Q50.64 30.69 50.83 30.48Q51.35 29.91 51.62 29.08ZM69.13 23.22Q68.37 22.78 67.35 22.78Q66.64 22.78 66.12 22.97Q65.6 23.16 65.25 23.48Q64.89 23.81 64.64 24.2L64.57 24.2L64.4 22.93L63.33 22.93L63.33 35.32L64.64 35.32L64.64 31.81Q64.64 31.49 64.6 31.06Q64.57 30.63 64.54 30.32L64.64 30.32Q64.88 30.68 65.25 30.99Q65.61 31.29 66.13 31.47Q66.64 31.65 67.32 31.65Q68.3 31.65 69.04 31.23Q69.12 31.19 69.19 31.14Q69.27 31.09 69.35 31.04Q70.03 30.54 70.42 29.64Q70.86 28.65 70.86 27.19Q70.86 24.98 69.91 23.88Q69.56 23.48 69.13 23.22ZM80.23 29.08Q80.5 28.25 80.5 27.2Q80.5 25.8 80.01 24.81Q79.66 24.09 79.1 23.62Q78.89 23.44 78.65 23.3Q78.61 23.28 78.57 23.25Q77.71 22.78 76.6 22.78Q75.37 22.78 74.48 23.3Q74.21 23.46 73.97 23.66Q73.45 24.12 73.12 24.8Q72.64 25.79 72.64 27.2Q72.64 28.25 72.93 29.08Q73.21 29.91 73.73 30.48Q73.98 30.75 74.27 30.96Q74.59 31.19 74.97 31.35Q75.68 31.65 76.54 31.65Q77.46 31.65 78.19 31.35Q78.66 31.16 79.04 30.86Q79.25 30.69 79.44 30.48Q79.96 29.91 80.23 29.08ZM107.56 23.26Q106.78 22.78 105.68 22.78Q104.66 22.78 103.88 23.21Q103.78 23.26 103.69 23.32Q103.52 23.43 103.37 23.55Q102.75 24.07 102.37 24.88Q101.91 25.89 101.91 27.28Q101.91 28.69 102.42 29.67Q102.75 30.3 103.25 30.73Q103.52 30.97 103.84 31.15Q104.76 31.65 106 31.65Q106.86 31.65 107.5 31.52Q108.14 31.39 108.78 31.1L108.78 29.96Q108.11 30.25 107.49 30.39Q106.86 30.54 106.05 30.54Q104.99 30.54 104.31 30.03Q104.15 29.91 104 29.75Q103.28 28.96 103.25 27.46L109.17 27.46L109.17 26.65Q109.17 25.49 108.75 24.62Q108.48 24.05 108.06 23.65Q107.83 23.43 107.56 23.26ZM116.54 23.26Q115.76 22.78 114.67 22.78Q113.65 22.78 112.87 23.21Q112.77 23.26 112.67 23.32Q112.51 23.43 112.36 23.55Q111.73 24.07 111.36 24.88Q110.89 25.89 110.89 27.28Q110.89 28.69 111.4 29.67Q111.73 30.3 112.23 30.73Q112.5 30.97 112.83 31.15Q113.75 31.65 114.98 31.65Q115.85 31.65 116.48 31.52Q117.12 31.39 117.77 31.1L117.77 29.96Q117.1 30.25 116.47 30.39Q115.85 30.54 115.03 30.54Q113.97 30.54 113.3 30.03Q113.13 29.91 112.99 29.75Q112.26 28.96 112.24 27.46L118.15 27.46L118.15 26.65Q118.15 25.49 117.74 24.62Q117.47 24.05 117.04 23.65Q116.82 23.43 116.54 23.26ZM60.41 30.39L60.41 22.93L55.96 22.93Q55.95 23.75 55.86 24.56Q55.8 25.09 55.7 25.62Q55.45 26.96 54.96 28.17Q54.48 29.38 53.75 30.39L53.07 30.39L53.07 34.46L54.32 34.46L54.32 31.5L60.38 31.5L60.38 34.46L61.64 34.46L61.64 30.39L60.41 30.39ZM93.57 26.53L93.57 22.93L92.26 22.93L92.26 31.5L93.57 31.5L93.57 27.63L98.34 27.63L98.34 31.5L99.64 31.5L99.64 22.93L98.34 22.93L98.34 26.53L93.57 26.53ZM104.44 24.16Q104.96 23.84 105.67 23.84Q106.4 23.84 106.87 24.16Q106.98 24.24 107.07 24.32Q107.39 24.62 107.57 25.07Q107.8 25.65 107.81 26.42L103.28 26.42Q103.39 25.2 104.01 24.52Q104.21 24.3 104.44 24.16ZM113.43 24.16Q113.94 23.84 114.65 23.84Q115.39 23.84 115.85 24.16Q115.96 24.24 116.06 24.32Q116.38 24.62 116.55 25.07Q116.78 25.65 116.79 26.42L112.26 26.42Q112.38 25.2 113 24.52Q113.19 24.3 113.43 24.16ZM45.65 28.99Q45.38 28.23 45.38 27.2Q45.38 25.64 46 24.75Q46.16 24.52 46.37 24.35Q46.97 23.87 47.96 23.87Q48.86 23.87 49.43 24.28Q49.52 24.34 49.6 24.41Q50.04 24.8 50.28 25.43Q50.55 26.17 50.55 27.2Q50.55 28.23 50.28 28.99Q50.04 29.63 49.59 30.03Q49.51 30.1 49.43 30.16Q48.85 30.57 47.96 30.57Q47.07 30.57 46.5 30.16Q46.42 30.1 46.35 30.04Q45.89 29.65 45.65 28.99ZM65.69 24.21Q66.24 23.87 67.13 23.87Q67.91 23.87 68.43 24.24Q68.72 24.44 68.94 24.76Q69.53 25.66 69.53 27.17Q69.53 28.17 69.26 28.94Q69 29.71 68.47 30.14Q68.38 30.22 68.28 30.28Q67.8 30.57 67.14 30.57Q66.21 30.57 65.66 30.18Q65.59 30.13 65.51 30.07Q65.08 29.69 64.87 29.04Q64.64 28.29 64.64 27.21L64.64 26.96Q64.65 25.92 64.9 25.24Q65.1 24.7 65.48 24.37Q65.58 24.29 65.69 24.21ZM74.26 28.99Q73.99 28.23 73.99 27.2Q73.99 25.64 74.61 24.75Q74.77 24.52 74.98 24.35Q75.58 23.87 76.57 23.87Q77.47 23.87 78.04 24.28Q78.13 24.34 78.21 24.41Q78.65 24.8 78.89 25.43Q79.16 26.17 79.16 27.2Q79.16 28.23 78.89 28.99Q78.65 29.63 78.2 30.03Q78.12 30.1 78.04 30.16Q77.46 30.57 76.57 30.57Q75.67 30.57 75.1 30.16Q75.03 30.1 74.96 30.04Q74.5 29.65 74.26 28.99ZM57.12 23.96L59.15 23.96L59.15 30.39L55.1 30.39Q55.67 29.6 56.1 28.53Q56.53 27.46 56.79 26.28Q57.05 25.1 57.12 23.96ZM87.53 30.26Q87 30.57 86.25 30.57Q85.46 30.57 84.95 30.22Q84.83 30.14 84.73 30.04Q84.37 29.73 84.15 29.27Q83.86 28.67 83.75 27.92Q83.63 27.17 83.63 26.37Q83.81 26.04 84.21 25.63Q84.6 25.21 85.18 24.91Q85.26 24.87 85.33 24.84Q85.85 24.61 86.47 24.61Q87.3 24.61 87.8 25.02Q87.99 25.17 88.13 25.38Q88.65 26.15 88.65 27.51Q88.65 28.6 88.36 29.27Q88.09 29.89 87.62 30.21Q87.58 30.23 87.53 30.26Z" fill="#BAE249" fill-opacity="1.000000" fill-rule="evenodd"/>
	<rect id="Frame 14" rx="-0.500000" width="144.000000" height="44.000000" transform="translate(3.500000 3.500000)" stroke="#BAE249" stroke-opacity="1.000000" stroke-width="1.000000"/>
	<rect id="Frame 71" rx="-0.500000" width="150.000000" height="50.000000" transform="translate(0.500000 0.500000)" stroke="#83A440" stroke-opacity="1.000000" stroke-width="1.000000"/>
</svg>
