<svg width="24.000000" height="24.000000" viewBox="0 0 24 24" fill="none" xmlns="http://www.w3.org/2000/svg" xmlns:xlink="http://www.w3.org/1999/xlink">
	<desc>
			Created with Pixso.
	</desc>
	<defs/>
	<circle id="Ellipse 1" cx="12.000000" cy="12.000000" r="11.500000" stroke="#899D9D" stroke-opacity="1.000000" stroke-width="1.000000"/>
	<path id="2.7" d="M16.44 18.37C16.59 18.3 16.7 18.18 16.77 17.98L20.2 8.62C20.22 8.58 20.21 8.54 20.16 8.5C20.13 8.44 20.1 8.42 20.05 8.42L15.81 8.42C15.5 8.42 15.3 8.4 15.19 8.37C15.09 8.34 15.04 8.27 15.04 8.16Q15.04 8.06 15.06 8Q15.06 7.99 15.06 7.99Q15.06 7.97 14.98 7.97C14.92 7.96 14.88 7.96 14.87 7.98L14.15 10.86C14.14 10.88 14.14 10.91 14.16 10.93C14.2 10.94 14.23 10.94 14.26 10.94Q14.29 10.94 14.31 10.93Q14.33 10.92 14.34 10.91C14.44 10.55 14.58 10.3 14.77 10.16C14.98 10.02 15.37 9.93 15.96 9.89Q16.84 9.82 19.11 9.82C19.19 9.82 19.21 9.86 19.17 9.93L15.01 18.88C15 18.9 15.01 18.92 15.03 18.94C15.05 18.98 15.08 18.99 15.11 18.99L15.12 18.99L16.44 18.37ZM6.81 12.24C6.39 12.67 5.71 13.31 4.78 14.16C4.75 14.19 4.73 14.24 4.73 14.3Q4.73 14.4 4.77 14.5C4.8 14.56 4.84 14.59 4.88 14.59L9.77 14.59Q9.81 14.59 9.84 14.57Q9.86 14.56 9.87 14.54C9.9 14.5 9.92 14.46 9.92 14.42L10.25 12.51C10.25 12.48 10.22 12.46 10.16 12.46Q10.09 12.46 10.07 12.49Q10.07 12.5 10.06 12.51C9.99 12.76 9.82 12.94 9.57 13.06C9.32 13.16 8.98 13.23 8.54 13.26C8.12 13.3 7.48 13.31 6.62 13.31C6.57 13.31 6.53 13.3 6.51 13.28Q6.51 13.28 6.51 13.27Q6.5 13.24 6.54 13.2L7.18 12.72Q8.32 11.92 8.96 11.25C9.4 10.79 9.61 10.28 9.61 9.73Q9.61 9.32 9.44 9.02Q9.32 8.8 9.12 8.62C8.79 8.35 8.33 8.21 7.74 8.21Q7.17 8.21 6.48 8.45C6.25 8.52 6.09 8.56 6 8.56Q5.89 8.56 5.83 8.51Q5.76 8.44 5.76 8.29Q5.76 8.18 5.77 8.1C5.78 8.08 5.77 8.07 5.74 8.06C5.72 8.04 5.69 8.03 5.66 8.03Q5.61 8.03 5.6 8.05Q5.6 8.06 5.6 8.06L4.89 10.8C4.88 10.83 4.93 10.85 5.02 10.85Q5.08 10.85 5.09 10.83L5.09 10.83Q5.47 9.74 5.84 9.23C6.09 8.88 6.42 8.7 6.81 8.7Q7.12 8.7 7.34 8.83Q7.54 8.94 7.68 9.15C7.88 9.44 7.98 9.78 7.98 10.18Q7.98 10.22 7.98 10.27Q7.95 10.7 7.71 11.12C7.54 11.43 7.24 11.8 6.81 12.24ZM11.59 14.51C11.77 14.68 12.01 14.77 12.31 14.77C12.61 14.77 12.84 14.68 13 14.51C13.17 14.34 13.25 14.1 13.25 13.79Q13.25 13.44 13.08 13.22Q13.04 13.16 13 13.12C12.84 12.95 12.61 12.86 12.31 12.86C12.01 12.86 11.77 12.95 11.59 13.12Q11.52 13.19 11.47 13.27Q11.33 13.49 11.33 13.79C11.33 14.09 11.42 14.33 11.59 14.51Z" fill="#899D9D" fill-opacity="1.000000" fill-rule="evenodd"/>
</svg>
