<svg width="24.000000" height="24.000000" viewBox="0 0 24 24" fill="none" xmlns="http://www.w3.org/2000/svg" xmlns:xlink="http://www.w3.org/1999/xlink">
	<desc>
			Created with Pixso.
	</desc>
	<defs/>
	<circle id="Ellipse 1" cx="12.000000" cy="12.000000" r="11.500000" stroke="#899D9D" stroke-opacity="1.000000" stroke-width="1.000000"/>
	<path id="9.1" d="M5.82 12.59C6.17 12.82 6.59 12.93 7.09 12.93Q7.59 12.93 8.03 12.76Q8.13 12.72 8.24 12.67Q8.39 12.6 8.52 12.51Q8.87 12.28 9.14 11.92C9.15 11.9 9.14 11.87 9.1 11.84C9.08 11.81 9.06 11.79 9.02 11.79C9 11.79 8.99 11.8 8.98 11.81C8.76 11.99 8.57 12.12 8.38 12.19Q8.3 12.23 8.22 12.25Q8.04 12.3 7.84 12.3Q7.45 12.3 7.18 12.13Q6.97 12 6.83 11.78Q6.5 11.23 6.5 10.3Q6.5 9.08 7.06 8.71Q7.31 8.54 7.66 8.54Q8 8.54 8.28 8.67Q8.58 8.81 8.82 9.1C9.13 9.48 9.34 9.94 9.47 10.5C9.61 11.04 9.68 11.58 9.68 12.13Q9.68 13.36 9.2 14.66Q9.13 14.86 9.04 15.06Q8.57 16.14 7.76 17.07Q7.35 17.54 6.88 17.93Q6.23 18.45 5.44 18.82C5.4 18.84 5.39 18.87 5.41 18.93C5.44 18.98 5.47 19 5.5 18.99C6.7 18.63 7.73 18.06 8.61 17.29Q9.9 16.18 10.58 14.77Q10.6 14.74 10.61 14.72Q11.31 13.28 11.31 11.84Q11.31 10.37 10.61 9.45Q10.5 9.31 10.38 9.18C9.78 8.53 8.94 8.21 7.89 8.21Q6.67 8.21 5.87 8.79Q5.79 8.85 5.71 8.91C5.16 9.37 4.88 9.97 4.88 10.7Q4.88 10.89 4.91 11.07Q4.96 11.42 5.1 11.76Q5.15 11.85 5.2 11.94Q5.42 12.32 5.82 12.59ZM15.82 14.5C15.82 14.56 15.84 14.59 15.87 14.59Q16.45 14.59 16.78 14.58L18.05 14.56L19.31 14.58C19.52 14.59 19.82 14.59 20.21 14.59C20.24 14.59 20.25 14.56 20.25 14.5C20.25 14.43 20.24 14.4 20.21 14.4Q19.58 14.4 19.29 14.32C19.1 14.27 18.97 14.16 18.91 14.02C18.85 13.87 18.81 13.63 18.81 13.3L18.81 8.38Q18.81 8.35 18.8 8.33Q18.79 8.32 18.78 8.3C18.76 8.27 18.73 8.26 18.7 8.26C18.68 8.26 18.66 8.26 18.65 8.27L15.74 9.65C15.7 9.67 15.69 9.71 15.71 9.76Q15.74 9.83 15.78 9.84Q15.78 9.84 15.79 9.84L15.81 9.84Q16.57 9.54 16.83 9.54C17.01 9.54 17.13 9.61 17.2 9.76C17.27 9.9 17.31 10.14 17.31 10.48L17.31 13.3C17.31 13.62 17.27 13.86 17.2 14.02C17.12 14.16 16.98 14.27 16.78 14.32Q16.49 14.4 15.87 14.4C15.84 14.4 15.82 14.43 15.82 14.5ZM12.86 14.51C13.04 14.68 13.28 14.77 13.58 14.77C13.88 14.77 14.11 14.68 14.27 14.51C14.44 14.34 14.53 14.1 14.53 13.79Q14.53 13.44 14.36 13.22Q14.32 13.16 14.27 13.12C14.11 12.95 13.88 12.86 13.58 12.86C13.28 12.86 13.04 12.95 12.86 13.12C12.69 13.29 12.61 13.51 12.61 13.79C12.61 14.09 12.69 14.33 12.86 14.51Z" fill="#899D9D" fill-opacity="1.000000" fill-rule="evenodd"/>
</svg>
