<svg width="24.000000" height="24.000000" viewBox="0 0 24 24" fill="none" xmlns="http://www.w3.org/2000/svg" xmlns:xlink="http://www.w3.org/1999/xlink">
	<desc>
			Created with Pixso.
	</desc>
	<defs/>
	<circle id="Ellipse 1" cx="12.000000" cy="12.000000" r="11.500000" stroke="#899D9D" stroke-opacity="1.000000" stroke-width="1.000000"/>
	<path id="4.2" d="M16.7 12.24C16.28 12.67 15.6 13.31 14.67 14.16C14.64 14.19 14.62 14.24 14.62 14.3Q14.62 14.4 14.66 14.5C14.69 14.56 14.73 14.59 14.77 14.59L19.66 14.59C19.71 14.59 19.74 14.58 19.76 14.54C19.79 14.5 19.81 14.46 19.81 14.42L20.14 12.51C20.14 12.48 20.11 12.46 20.05 12.46C20 12.46 19.96 12.48 19.95 12.51C19.88 12.76 19.71 12.94 19.46 13.06C19.21 13.16 18.87 13.23 18.43 13.26C18.01 13.3 17.37 13.31 16.51 13.31Q16.43 13.31 16.4 13.28C16.39 13.26 16.4 13.23 16.43 13.2L17.07 12.72Q18.21 11.92 18.85 11.25C19.29 10.79 19.5 10.28 19.5 9.73Q19.5 9.32 19.34 9.02Q19.21 8.8 19.01 8.62C18.68 8.35 18.22 8.21 17.63 8.21Q17.06 8.21 16.37 8.45C16.14 8.52 15.98 8.56 15.89 8.56C15.73 8.56 15.65 8.47 15.65 8.29Q15.65 8.18 15.66 8.1C15.68 8.08 15.66 8.07 15.63 8.06C15.61 8.04 15.58 8.03 15.55 8.03C15.51 8.03 15.49 8.04 15.49 8.06L14.78 10.8C14.77 10.83 14.82 10.85 14.91 10.85C14.96 10.85 14.98 10.84 14.98 10.83Q15.36 9.74 15.73 9.23C15.98 8.88 16.31 8.7 16.7 8.7Q17.01 8.7 17.23 8.83Q17.43 8.94 17.57 9.15C17.77 9.44 17.87 9.78 17.87 10.18Q17.87 10.22 17.87 10.27Q17.84 10.7 17.6 11.12C17.43 11.43 17.13 11.8 16.7 12.24ZM10.24 14.08C10.24 13.91 10.22 13.82 10.19 13.82C9.68 13.84 9.32 13.86 9.1 13.86L9.1 8.32C9.1 8.29 9.09 8.27 9.06 8.26C9.02 8.23 8.99 8.22 8.96 8.22C8.92 8.22 8.88 8.23 8.86 8.26L3.9 14.27Q3.87 14.31 3.87 14.34Q3.87 14.37 3.89 14.4C3.92 14.44 3.96 14.46 4.02 14.46Q6.61 14.46 7.57 14.48L7.57 17.5C7.57 17.59 7.58 17.63 7.62 17.63L7.71 17.6L8.98 16.98C9.06 16.93 9.1 16.86 9.1 16.75L9.1 14.53L10.16 14.58C10.18 14.58 10.2 14.52 10.21 14.42C10.23 14.31 10.24 14.2 10.24 14.08ZM7.57 13.9C7.08 13.91 6.21 13.92 4.98 13.92Q4.88 13.92 4.86 13.88Q4.85 13.86 4.9 13.81L7.57 10.67L7.57 13.9ZM11.73 14.51C11.91 14.68 12.15 14.77 12.45 14.77C12.75 14.77 12.98 14.68 13.14 14.51C13.31 14.34 13.39 14.1 13.39 13.79Q13.39 13.44 13.22 13.22Q13.19 13.16 13.14 13.12C12.98 12.95 12.75 12.86 12.45 12.86C12.15 12.86 11.91 12.95 11.73 13.12C11.56 13.29 11.47 13.51 11.47 13.79C11.47 14.09 11.56 14.33 11.73 14.51Z" fill="#899D9D" fill-opacity="1.000000" fill-rule="evenodd"/>
</svg>
