<svg width="24.000000" height="24.000000" viewBox="0 0 24 24" fill="none" xmlns="http://www.w3.org/2000/svg" xmlns:xlink="http://www.w3.org/1999/xlink">
	<desc>
			Created with Pixso.
	</desc>
	<defs/>
	<circle id="Ellipse 1" cx="12.000000" cy="12.000000" r="11.500000" stroke="#899D9D" stroke-opacity="1.000000" stroke-width="1.000000"/>
	<path id="2.3" d="M7.1 12.24C6.67 12.67 5.99 13.31 5.06 14.16C5.03 14.19 5.02 14.24 5.02 14.3Q5.02 14.4 5.05 14.5C5.08 14.56 5.12 14.59 5.16 14.59L10.06 14.59Q10.09 14.59 10.12 14.57Q10.14 14.56 10.15 14.54C10.18 14.5 10.2 14.46 10.2 14.42L10.54 12.51C10.54 12.48 10.5 12.46 10.44 12.46Q10.38 12.46 10.35 12.49Q10.35 12.5 10.34 12.51C10.27 12.76 10.1 12.94 9.85 13.06C9.6 13.16 9.26 13.23 8.82 13.26C8.4 13.3 7.76 13.31 6.9 13.31C6.85 13.31 6.81 13.3 6.79 13.28Q6.79 13.28 6.79 13.27Q6.78 13.24 6.82 13.2L7.46 12.72Q8.6 11.92 9.24 11.25C9.68 10.79 9.9 10.28 9.9 9.73Q9.9 9.32 9.73 9.02Q9.61 8.8 9.4 8.62C9.07 8.35 8.61 8.21 8.02 8.21Q7.45 8.21 6.76 8.45C6.54 8.52 6.38 8.56 6.28 8.56C6.12 8.56 6.04 8.47 6.04 8.29Q6.04 8.18 6.06 8.1C6.07 8.08 6.06 8.07 6.02 8.06C6 8.04 5.98 8.03 5.94 8.03Q5.89 8.03 5.88 8.05Q5.88 8.06 5.88 8.06L5.18 10.8C5.16 10.83 5.21 10.85 5.3 10.85Q5.36 10.85 5.37 10.83L5.37 10.83Q5.75 9.74 6.12 9.23C6.38 8.88 6.7 8.7 7.1 8.7Q7.4 8.7 7.62 8.83Q7.82 8.94 7.96 9.15C8.16 9.44 8.26 9.78 8.26 10.18Q8.26 10.22 8.26 10.27Q8.24 10.7 7.99 11.12C7.82 11.43 7.52 11.8 7.1 12.24ZM19.45 13.31Q18.89 12.67 17.77 12.5C18.33 12.27 18.76 11.94 19.07 11.49C19.39 11.03 19.55 10.54 19.55 10.03Q19.55 9.67 19.42 9.35Q19.28 9.02 19.01 8.75Q18.93 8.67 18.85 8.61Q18.34 8.21 17.52 8.21Q17.17 8.21 16.89 8.27C16.71 8.3 16.49 8.36 16.24 8.43C16 8.52 15.82 8.56 15.69 8.56Q15.56 8.56 15.49 8.49Q15.42 8.42 15.42 8.29C15.42 8.26 15.43 8.2 15.45 8.11C15.46 8.1 15.45 8.09 15.42 8.08C15.39 8.06 15.36 8.05 15.33 8.05C15.3 8.05 15.28 8.06 15.26 8.08L14.67 10.42C14.66 10.46 14.7 10.48 14.8 10.48C14.84 10.48 14.86 10.47 14.86 10.46C15.1 9.88 15.39 9.43 15.76 9.12C16.13 8.81 16.54 8.66 16.99 8.66Q17.19 8.66 17.35 8.74Q17.56 8.84 17.69 9.09C17.85 9.36 17.93 9.77 17.93 10.3Q17.93 11.36 17.42 11.95C17.08 12.34 16.54 12.62 15.79 12.82C15.76 12.83 15.75 12.86 15.77 12.93Q15.8 13 15.84 13.01Q15.84 13.01 15.85 13.01C16.08 12.94 16.3 12.91 16.51 12.91C17.05 12.91 17.49 13.1 17.81 13.49C18.13 13.86 18.29 14.36 18.29 14.99Q18.29 16.02 17.52 17.06Q16.75 18.11 15.01 18.82C14.96 18.84 14.95 18.87 14.97 18.93C15.01 18.98 15.04 19 15.09 18.99C16.18 18.66 17.1 18.26 17.84 17.79C18.58 17.33 19.13 16.84 19.49 16.32Q20.03 15.54 20.03 14.78Q20.03 14.42 19.92 14.1Q19.78 13.67 19.45 13.31ZM11.87 14.51C12.05 14.68 12.29 14.77 12.59 14.77C12.89 14.77 13.12 14.68 13.28 14.51C13.45 14.34 13.53 14.1 13.53 13.79Q13.53 13.44 13.37 13.22Q13.33 13.16 13.28 13.12C13.12 12.95 12.89 12.86 12.59 12.86C12.29 12.86 12.05 12.95 11.87 13.12Q11.8 13.19 11.75 13.27Q11.61 13.49 11.61 13.79C11.61 14.09 11.7 14.33 11.87 14.51Z" fill="#899D9D" fill-opacity="1.000000" fill-rule="evenodd"/>
</svg>
