<svg width="24.000000" height="24.000000" viewBox="0 0 24 24" fill="none" xmlns="http://www.w3.org/2000/svg" xmlns:xlink="http://www.w3.org/1999/xlink">
	<desc>
			Created with Pixso.
	</desc>
	<defs/>
	<circle id="Ellipse 1" cx="12.000000" cy="12.000000" r="11.500000" stroke="#899D9D" stroke-opacity="1.000000" stroke-width="1.000000"/>
	<path id="5.1" d="M9.11 12.29Q8.07 11.49 5.83 11.46L6.06 10.21Q6.07 10.08 6.15 10.03Q6.2 9.98 6.3 9.98L9.34 9.92C9.48 9.92 9.58 9.9 9.64 9.87C9.71 9.83 9.75 9.75 9.79 9.63L10.11 7.86Q10.11 7.83 10.1 7.82Q10.09 7.79 10.03 7.79C9.97 7.78 9.94 7.79 9.93 7.82C9.88 7.98 9.78 8.1 9.64 8.18C9.51 8.24 9.22 8.3 8.76 8.37C8.3 8.43 7.4 8.54 6.06 8.7C5.97 8.71 5.92 8.73 5.9 8.75C5.88 8.76 5.86 8.8 5.85 8.88L5.34 11.73C5.33 11.78 5.34 11.83 5.37 11.87C5.4 11.9 5.44 11.92 5.5 11.92Q6.93 11.92 7.71 12.63Q7.73 12.64 7.74 12.66Q7.88 12.79 8 12.95Q8.52 13.64 8.52 14.72Q8.52 15.08 8.45 15.42Q8.3 16.17 7.82 16.85Q7.13 17.84 5.4 18.82C5.36 18.84 5.35 18.87 5.37 18.91C5.4 18.96 5.44 18.99 5.48 18.99L5.5 18.99C6.62 18.49 7.51 18 8.19 17.54C8.87 17.08 9.37 16.6 9.69 16.1Q9.87 15.81 9.99 15.5Q10.17 15.01 10.17 14.45Q10.17 13.68 9.84 13.1Q9.58 12.64 9.11 12.29ZM14.88 14.5C14.88 14.56 14.89 14.59 14.92 14.59Q15.5 14.59 15.84 14.58L17.1 14.56L18.36 14.58C18.58 14.59 18.88 14.59 19.26 14.59C19.29 14.59 19.31 14.56 19.31 14.5C19.31 14.43 19.29 14.4 19.26 14.4Q18.64 14.4 18.35 14.32C18.16 14.27 18.03 14.16 17.96 14.02C17.9 13.87 17.87 13.63 17.87 13.3L17.87 8.38Q17.87 8.35 17.86 8.33Q17.85 8.32 17.84 8.3C17.82 8.27 17.79 8.26 17.76 8.26C17.74 8.26 17.72 8.26 17.71 8.27L14.8 9.65C14.75 9.67 14.74 9.71 14.76 9.76Q14.79 9.83 14.83 9.84Q14.84 9.84 14.84 9.84L14.86 9.84Q15.63 9.54 15.88 9.54C16.07 9.54 16.19 9.61 16.25 9.76C16.33 9.9 16.36 10.14 16.36 10.48L16.36 13.3C16.36 13.62 16.33 13.86 16.25 14.02C16.18 14.16 16.04 14.27 15.84 14.32Q15.55 14.4 14.92 14.4C14.89 14.4 14.88 14.43 14.88 14.5ZM11.92 14.51C12.1 14.68 12.34 14.77 12.64 14.77C12.93 14.77 13.16 14.68 13.32 14.51C13.49 14.34 13.58 14.1 13.58 13.79Q13.58 13.44 13.41 13.22Q13.37 13.16 13.32 13.12C13.16 12.95 12.93 12.86 12.64 12.86C12.34 12.86 12.1 12.95 11.92 13.12Q11.85 13.19 11.8 13.27Q11.66 13.49 11.66 13.79C11.66 14.09 11.75 14.33 11.92 14.51Z" fill="#899D9D" fill-opacity="1.000000" fill-rule="evenodd"/>
</svg>
