<svg width="24.000000" height="24.000000" viewBox="0 0 24 24" fill="none" xmlns="http://www.w3.org/2000/svg" xmlns:xlink="http://www.w3.org/1999/xlink">
	<desc>
			Created with Pixso.
	</desc>
	<defs/>
	<circle id="Ellipse 1" cx="12.000000" cy="12.000000" r="11.500000" stroke="#899D9D" stroke-opacity="1.000000" stroke-width="1.000000"/>
	<path id="2.4" d="M6.10056 12.244C5.6739 12.6707 4.99656 13.3107 4.06856 14.164C4.03656 14.196 4.02056 14.244 4.02056 14.308Q4.02056 14.404 4.05256 14.5C4.08456 14.564 4.1219 14.596 4.16456 14.596L9.06056 14.596Q9.09995 14.596 9.12721 14.5778Q9.14425 14.5665 9.15656 14.548C9.18856 14.5053 9.20456 14.4627 9.20456 14.42L9.54056 12.516C9.54056 12.484 9.50856 12.468 9.44456 12.468Q9.38056 12.468 9.35752 12.4987Q9.35176 12.5064 9.34856 12.516C9.2739 12.7613 9.10856 12.9427 8.85256 13.06C8.60723 13.1667 8.2659 13.236 7.82856 13.268C7.4019 13.3 6.7619 13.316 5.90856 13.316C5.85523 13.316 5.8179 13.3053 5.79656 13.284Q5.79468 13.2802 5.79368 13.2762Q5.78621 13.2464 5.82856 13.204L6.46856 12.724Q7.60456 11.924 8.24456 11.252C8.6819 10.7933 8.90056 10.2867 8.90056 9.732Q8.90056 9.32965 8.73093 9.02033Q8.6105 8.80072 8.40456 8.628C8.0739 8.35067 7.61523 8.212 7.02856 8.212Q6.45256 8.212 5.76456 8.452C5.54056 8.52667 5.38056 8.564 5.28456 8.564C5.12456 8.564 5.04456 8.47333 5.04456 8.292Q5.04456 8.18 5.06056 8.1C5.07123 8.08933 5.06056 8.07867 5.02856 8.068C5.00723 8.04667 4.98056 8.036 4.94856 8.036Q4.89736 8.036 4.88712 8.05648Q4.88456 8.0616 4.88456 8.068L4.18056 10.804C4.1699 10.836 4.21256 10.852 4.30856 10.852Q4.3688 10.852 4.37234 10.8378L4.37256 10.836Q4.75656 9.748 5.12456 9.236C5.38056 8.884 5.7059 8.708 6.10056 8.708Q6.4021 8.708 6.62941 8.83789Q6.82425 8.94923 6.96456 9.156C7.16723 9.444 7.26856 9.78533 7.26856 10.18Q7.26856 10.2297 7.26565 10.2791Q7.24042 10.708 6.99656 11.124C6.8259 11.4333 6.52723 11.8067 6.10056 12.244ZM19.9946 14.084C19.9946 13.9133 19.9786 13.828 19.9466 13.828C19.4346 13.8493 19.0719 13.86 18.8586 13.86L18.8586 8.324C18.8586 8.292 18.8426 8.27067 18.8106 8.26C18.7786 8.23867 18.7466 8.228 18.7146 8.228C18.6719 8.228 18.6399 8.23867 18.6186 8.26L13.6586 14.276C13.6159 14.3187 13.6106 14.3613 13.6426 14.404C13.6746 14.4467 13.7172 14.468 13.7706 14.468Q16.3626 14.468 17.3226 14.484L17.3226 17.508C17.3226 17.5933 17.3386 17.636 17.3706 17.636L17.4666 17.604L18.7306 16.98C18.8159 16.9373 18.8586 16.8627 18.8586 16.756L18.8586 14.532L19.9146 14.58C19.9359 14.58 19.9519 14.5267 19.9626 14.42C19.9839 14.3133 19.9946 14.2013 19.9946 14.084ZM17.3226 13.908C16.8319 13.9187 15.9679 13.924 14.7306 13.924C14.6132 13.924 14.5866 13.8867 14.6506 13.812L17.3226 10.676L17.3226 13.908ZM10.8741 14.516C11.0554 14.6867 11.2954 14.772 11.5941 14.772C11.8927 14.772 12.1221 14.6867 12.2821 14.516C12.4527 14.3453 12.5381 14.1053 12.5381 13.796Q12.5381 13.4461 12.3701 13.2221Q12.3307 13.1696 12.2821 13.124C12.1221 12.9533 11.8927 12.868 11.5941 12.868C11.2954 12.868 11.0554 12.9533 10.8741 13.124Q10.805 13.193 10.7546 13.2737Q10.6181 13.4922 10.6181 13.796C10.6181 14.0947 10.7034 14.3347 10.8741 14.516Z" fill="#899D9D" fill-opacity="1.000000" fill-rule="evenodd"/>
</svg>
