<svg width="24.000000" height="24.000000" viewBox="0 0 24 24" fill="none" xmlns="http://www.w3.org/2000/svg" xmlns:xlink="http://www.w3.org/1999/xlink">
	<desc>
			Created with Pixso.
	</desc>
	<defs/>
	<circle id="Ellipse 1" cx="12.000000" cy="12.000000" r="11.500000" stroke="#899D9D" stroke-opacity="1.000000" stroke-width="1.000000"/>
	<path id="1.7" d="M15.37 18.37C15.52 18.3 15.64 18.18 15.71 17.98L19.13 8.62C19.16 8.58 19.14 8.54 19.1 8.5Q19.06 8.43 19.01 8.42Q19 8.42 18.99 8.42L14.75 8.42C14.44 8.42 14.23 8.4 14.13 8.37C14.03 8.34 13.98 8.27 13.98 8.16Q13.98 8.06 14 8Q14 7.99 14 7.99Q13.99 7.97 13.92 7.97C13.85 7.96 13.82 7.96 13.81 7.98L13.09 10.86C13.08 10.88 13.08 10.91 13.1 10.93C13.13 10.94 13.17 10.94 13.2 10.94Q13.23 10.94 13.25 10.93Q13.27 10.92 13.28 10.91C13.37 10.55 13.52 10.3 13.71 10.16C13.91 10.02 14.31 9.93 14.89 9.89Q15.77 9.82 18.05 9.82C18.13 9.82 18.15 9.86 18.11 9.93L13.95 18.88C13.94 18.9 13.94 18.92 13.97 18.94C13.99 18.98 14.01 18.99 14.05 18.99L14.06 18.99L15.37 18.37ZM4.86 14.5C4.86 14.56 4.88 14.59 4.91 14.59Q5.48 14.59 5.82 14.58L7.08 14.56L8.35 14.58C8.56 14.59 8.86 14.59 9.24 14.59C9.28 14.59 9.29 14.56 9.29 14.5C9.29 14.43 9.28 14.4 9.24 14.4Q8.62 14.4 8.33 14.32C8.14 14.27 8.01 14.16 7.95 14.02C7.88 13.87 7.85 13.63 7.85 13.3L7.85 8.38Q7.85 8.35 7.84 8.33Q7.83 8.32 7.82 8.3C7.8 8.27 7.77 8.26 7.74 8.26Q7.71 8.26 7.69 8.27L4.78 9.65C4.74 9.67 4.73 9.71 4.75 9.76C4.77 9.81 4.8 9.84 4.83 9.84L4.84 9.84Q5.61 9.54 5.87 9.54Q6.03 9.54 6.13 9.61Q6.2 9.67 6.24 9.76C6.31 9.9 6.35 10.14 6.35 10.48L6.35 13.3C6.35 13.62 6.31 13.86 6.24 14.02C6.16 14.16 6.02 14.27 5.82 14.32Q5.53 14.4 4.91 14.4Q4.9 14.4 4.89 14.4Q4.86 14.42 4.86 14.5ZM10.53 14.51C10.71 14.68 10.95 14.77 11.25 14.77Q11.63 14.77 11.86 14.58Q11.9 14.55 11.93 14.51C12.1 14.34 12.19 14.1 12.19 13.79Q12.19 13.44 12.02 13.22Q11.98 13.16 11.93 13.12C11.77 12.95 11.54 12.86 11.25 12.86C10.95 12.86 10.71 12.95 10.53 13.12Q10.46 13.19 10.41 13.27Q10.27 13.49 10.27 13.79C10.27 14.09 10.35 14.33 10.53 14.51Z" fill="#899D9D" fill-opacity="1.000000" fill-rule="evenodd"/>
</svg>
