<svg width="21.000000" height="27.000000" viewBox="0 0 21 27" fill="none" xmlns="http://www.w3.org/2000/svg" xmlns:xlink="http://www.w3.org/1999/xlink">
	<desc>
			Created with Pixso.
	</desc>
	<defs/>
	<path id="Vector" d="M7.41 0L6.17 0L6.17 1.22L8.64 1.22L8.64 0L7.41 0ZM6.17 1.22L4.94 1.22L4.94 12.27L3.7 12.27L3.7 11.04L0 11.04L0 14.72L1.23 14.72L1.23 12.27L3.7 12.27L3.7 13.5L4.94 13.5L4.94 14.72L6.17 14.72L6.17 2.45L6.17 1.22ZM9.88 1.22L8.64 1.22L8.64 2.45L8.64 12.27L9.88 12.27L9.88 7.36L12.35 7.36L12.35 6.13L9.88 6.13L9.88 1.22ZM13.58 7.36L12.35 7.36L12.35 8.59L12.35 13.5L13.58 13.5L13.58 8.59L16.05 8.59L16.05 7.36L13.58 7.36ZM17.29 8.59L16.05 8.59L16.05 14.72L17.29 14.72L17.29 9.81L18.52 9.81L18.52 11.04L19.76 11.04L19.76 9.81L18.52 9.81L18.52 8.59L17.29 8.59ZM21 11.04L19.76 11.04L19.76 12.27L19.76 19.63L21 19.63L21 11.04ZM2.47 14.72L1.23 14.72L1.23 15.95L2.47 15.95L2.47 18.4L3.7 18.4L3.7 20.86L4.94 20.86L4.94 18.4L3.7 18.4L3.7 15.95L2.47 15.95L2.47 14.72ZM19.76 19.63L18.52 19.63L18.52 23.31L17.29 23.31L17.29 25.77L7.41 25.77L7.41 23.31L6.17 23.31L6.17 27L18.52 27L18.52 23.31L19.76 23.31L19.76 20.86L19.76 19.63ZM6.17 20.86L4.94 20.86L4.94 22.09L4.94 23.31L6.17 23.31L6.17 20.86Z" fill="#FFFFFF" fill-opacity="1.000000" fill-rule="evenodd"/>
</svg>
